<?xml version="1.0" encoding="UTF-8" standalone="no"?>
<!-- Created with Inkscape (http://www.inkscape.org/) -->

<svg
   version="1.1"
   id="svg182"
   width="11338.587"
   height="11338.587"
   viewBox="0 0 11338.587 11338.587"
   sodipodi:docname="SDCPP LOGO.pdf"
   xmlns:inkscape="http://www.inkscape.org/namespaces/inkscape"
   xmlns:sodipodi="http://sodipodi.sourceforge.net/DTD/sodipodi-0.dtd"
   xmlns="http://www.w3.org/2000/svg"
   xmlns:svg="http://www.w3.org/2000/svg">
  <defs
     id="defs186">
    <clipPath
       clipPathUnits="userSpaceOnUse"
       id="clipPath411">
      <path
         d="m -1259.5391,3074.2475 h 8503.9367 v -8503.937 h -8503.9367 z"
         id="path413"
         style="stroke-width:0.999998" />
    </clipPath>
    <clipPath
       clipPathUnits="userSpaceOnUse"
       id="clipPath417">
      <path
         d="m -7252.1343,3822.3091 h 8503.9367 v -8503.937 h -8503.9367 z"
         id="path419"
         style="stroke-width:0.999998" />
    </clipPath>
    <clipPath
       clipPathUnits="userSpaceOnUse"
       id="clipPath423">
      <path
         d="m -2126.0872,2047.0537 h 8503.9367 v -8503.937 h -8503.9367 z"
         id="path425"
         style="stroke-width:0.999998" />
    </clipPath>
    <clipPath
       clipPathUnits="userSpaceOnUse"
       id="clipPath429">
      <path
         d="m -4609.7075,3399.4663 h 8503.9367 v -8503.937 h -8503.9367 z"
         id="path431"
         style="stroke-width:0.999998" />
    </clipPath>
    <clipPath
       clipPathUnits="userSpaceOnUse"
       id="clipPath435">
      <path
         d="M -3247.1377,7172.5698 H 5256.799 v -8503.937 h -8503.9367 z"
         id="path437"
         style="stroke-width:0.999998" />
    </clipPath>
    <clipPath
       clipPathUnits="userSpaceOnUse"
       id="clipPath441">
      <path
         d="m -2798.6511,3658.7002 h 8503.9367 v -8503.937 h -8503.9367 z"
         id="path443"
         style="stroke-width:0.999998" />
    </clipPath>
    <clipPath
       clipPathUnits="userSpaceOnUse"
       id="clipPath447">
      <path
         d="M -5236.7017,8056.9865 H 3267.235 v -8503.937 h -8503.9367 z"
         id="path449"
         style="stroke-width:0.999998" />
    </clipPath>
    <clipPath
       clipPathUnits="userSpaceOnUse"
       id="clipPath453">
      <path
         d="m -3607.397,4825.1794 h 8503.9367 v -8503.937 H -3607.397 Z"
         id="path455"
         style="stroke-width:0.999998" />
    </clipPath>
    <clipPath
       clipPathUnits="userSpaceOnUse"
       id="clipPath459">
      <path
         d="M -1866.5707,8053.8279 H 6637.366 v -8503.937 h -8503.9367 z"
         id="path461"
         style="stroke-width:0.999998" />
    </clipPath>
    <clipPath
       clipPathUnits="userSpaceOnUse"
       id="clipPath465">
      <path
         d="m -5751.3794,7160.7234 h 8503.9367 v -8503.937 h -8503.9367 z"
         id="path467"
         style="stroke-width:0.999998" />
    </clipPath>
  </defs>
  <sodipodi:namedview
     id="namedview184"
     pagecolor="#ffffff"
     bordercolor="#999999"
     borderopacity="1"
     inkscape:showpageshadow="0"
     inkscape:pageopacity="0"
     inkscape:pagecheckerboard="0"
     inkscape:deskcolor="#d1d1d1"
     showgrid="false" />
  <g
     id="g190"
     inkscape:groupmode="layer"
     inkscape:label="Page 1"
     transform="matrix(1.3333333,0,0,-1.3333333,0,11338.587)">
    <g
       id="g192">
      <g
         id="g479">
        <path
           d="m 0,0 c 0,0 -448.339,3521.454 3571.498,2303.914 0,0 119.347,-176.04 -149.481,-176.04 0,0 -3078.224,968.014 -3183.21,-1981.095 C 238.807,146.779 179.292,-308.07 0,0"
           style="fill:#2e3191;fill-opacity:1;fill-rule:nonzero;stroke:none"
           id="path202"
           transform="translate(1259.5391,5429.6895)"
           clip-path="url(#clipPath411)" />
        <path
           d="M 0,0 C 0,0 1599.055,2934.576 4587.854,-1452.663 4587.854,-1452.663 2032.385,865.568 0,0"
           style="fill:#00adee;fill-opacity:1;fill-rule:nonzero;stroke:none"
           id="path206"
           transform="translate(2126.0872,6456.8833)"
           clip-path="url(#clipPath423)" />
        <path
           d="m 0,0 c 0,0 401.595,-3462.706 -3616.748,-2318.339 0,0 -59.405,351.767 268.938,249.321 329.101,-102.866 2794.595,-871.778 3078.554,1838.542 0,0 164.49,421.362 269.256,230.476"
           style="fill:#00adee;fill-opacity:1;fill-rule:nonzero;stroke:none"
           id="path210"
           transform="translate(7252.1343,4681.6279)"
           clip-path="url(#clipPath417)" />
        <path
           d="m 0,0 c -42.051,34.25 -316.235,167.309 -563.99,370.417 -179.895,147.478 -594.885,536.04 -1114.315,1101.43 -45.217,49.218 -127.233,6.245 -111.071,-58.111 141.88,-564.961 706.618,-2009.94 2820.738,-2468.736 5.225,-1.134 10.535,-1.638 15.883,-1.496 149.224,3.984 2292.401,94.299 2038.401,1993.151 -1.955,14.614 -9.129,28.183 -20.121,38.223 -457.654,418.051 -900.358,659.882 -1205.661,798.525 -346.562,157.378 -1517.08,697.927 -2725.122,310.517 -38.216,-12.255 -71.29,-23.778 -97.468,-33.252 -16.299,-5.9 -29.446,-18.018 -36.653,-33.538 -114.363,-246.237 -113.869,-433.704 -94.966,-555.053 C -1004.12,882.882 -256.527,287.979 -65.144,194.23 -27.057,175.573 69.441,123.104 86.229,45.603 88.885,33.338 97.24,-5.23 79.021,-18.095 68.182,-25.748 51.174,-22.019 41.598,-19.919 17.771,-14.695 2.08,-1.694 0,0"
           style="fill:#3f2e6c;fill-opacity:1;fill-rule:nonzero;stroke:none"
           id="path214"
           transform="translate(3607.397,3678.7576)"
           clip-path="url(#clipPath453)" />
        <path
           d="m 0,0 c 0,0 -553.215,1432.976 1524.422,558.135 2077.097,-875.045 2346.044,-1861.809 1763.126,-2039.423 -582.817,-178.045 -1075.762,0 -1075.762,0 0,0 612.511,-317.546 1105.892,-253.536 70.546,41.425 172.592,111.108 270.859,220.631 182.069,202.923 240.883,419.694 276.23,556.099 24.388,94.113 50.54,230.995 50.522,400.174 C 3670.602,-259.675 3079.638,381.685 2079.904,725.126 1589.76,893.506 1001.138,991.341 313.662,935.271 313.662,935.271 -523.084,874.841 0,0"
           style="fill:#00adee;fill-opacity:1;fill-rule:nonzero;stroke:none"
           id="path218"
           transform="translate(2798.6511,4845.2368)"
           clip-path="url(#clipPath441)" />
        <path
           d="m 0,0 c 346.474,-161.313 618.436,-324.297 813.912,-452.959 128.579,-84.631 285.763,-195.021 445.881,-375.107 154.211,-173.443 279.463,-314.315 247.712,-474.192 -40.069,-201.762 -302.595,-294.877 -344.675,-309.187 152.025,16.224 412.28,65.469 479.148,231.335 112.828,279.874 -401.642,701.545 -573.277,842.221 C 863.125,-369.395 517.364,-137.821 0,0"
           style="fill:#ffffff;fill-opacity:1;fill-rule:nonzero;stroke:none"
           id="path222"
           transform="translate(4609.7075,5104.4707)"
           clip-path="url(#clipPath429)" />
        <path
           d="m 0,0 v 252.688 c 52.098,-38.435 108.687,-67.256 169.767,-86.464 61.072,-19.228 122.744,-28.828 185.027,-28.828 36.52,0 68.408,2.889 95.664,8.688 27.242,5.785 49.993,13.823 68.267,24.087 18.26,10.264 31.881,22.366 40.864,36.32 8.982,13.948 13.473,29.084 13.473,45.41 0,22.11 -7.18,41.849 -21.555,59.225 -14.374,17.369 -33.992,33.425 -58.834,48.167 -24.856,14.736 -54.343,28.946 -88.477,42.645 -34.126,13.678 -70.956,27.632 -110.474,41.85 -100.606,36.839 -175.61,81.854 -225.011,135.032 -49.402,53.164 -74.103,117.387 -74.103,192.675 0,58.956 13.473,109.625 40.42,152.007 26.946,42.375 63.621,77.251 110.038,104.635 46.396,27.363 100.148,47.503 161.228,60.407 61.08,12.89 125.75,19.346 194.017,19.346 67.056,0 126.496,-3.553 178.298,-10.658 51.788,-7.112 99.542,-18.039 143.263,-32.775 V 828.35 c -21.554,13.152 -45.065,24.736 -70.512,34.744 -25.454,9.995 -51.647,18.288 -78.594,24.875 -26.946,6.58 -53.752,11.453 -80.388,14.611 -26.651,3.159 -51.957,4.735 -75.898,4.735 -32.944,0 -62.875,-2.765 -89.821,-8.287 -26.954,-5.529 -49.712,-13.305 -68.268,-23.299 -18.569,-10.008 -32.943,-21.986 -43.115,-35.927 -10.193,-13.954 -15.268,-29.616 -15.268,-46.985 0,-18.952 5.68,-35.933 17.063,-50.932 11.368,-15.005 27.538,-29.222 48.507,-42.644 20.949,-13.423 46.396,-26.589 76.349,-39.479 29.931,-12.911 63.769,-26.195 101.499,-39.88 51.493,-18.952 97.748,-39.092 138.773,-60.408 41.011,-21.322 76.193,-45.409 105.54,-72.254 29.333,-26.851 51.788,-57.525 67.366,-92 15.564,-34.482 23.356,-74.618 23.356,-120.421 0,-63.172 -13.628,-116.212 -40.87,-159.112 C 810.335,72.772 773.372,38.028 726.659,11.446 679.953,-15.143 625.61,-34.226 563.636,-45.803 501.655,-57.373 436.225,-63.172 367.374,-63.172 c -70.668,0 -137.879,5.267 -201.655,15.793 C 101.95,-36.86 46.706,-21.06 0,0"
           style="fill:#2e3191;fill-opacity:1;fill-rule:nonzero;stroke:none"
           id="path226"
           transform="translate(1866.5707,450.1091)"
           clip-path="url(#clipPath459)" />
        <path
           d="m 0,0 v -717.798 h 143.714 c 125.75,0 224.399,33.161 295.967,99.492 71.547,66.331 107.335,156.617 107.335,270.852 0,107.918 -35.478,192.807 -106.441,254.666 C 369.619,-30.936 270.055,0 141.919,0 Z M -290.125,-924.691 V 207.68 h 456.294 c 457.491,0 686.24,-183.994 686.24,-551.975 0,-176.364 -62.425,-317.181 -187.281,-422.465 C 540.28,-872.052 373.955,-924.691 166.169,-924.691 Z"
           style="fill:#2e3191;fill-opacity:1;fill-rule:nonzero;stroke:none"
           id="path230"
           transform="translate(3247.1377,1331.3672)"
           clip-path="url(#clipPath435)" />
        <path
           d="m 0,0 c -94.024,-40.018 -216.782,-60.014 -368.274,-60.014 -197.607,0 -353,51.057 -466.178,153.189 -113.177,102.126 -169.766,238.209 -169.766,408.255 0,181.091 63.621,327.97 190.877,440.629 127.236,112.653 292.37,168.989 495.369,168.989 125.75,0 231.741,-13.954 317.972,-41.85 L 0,823.615 c -86.231,45.264 -184.443,67.907 -294.623,67.907 -120.962,0 -218.577,-33.439 -292.82,-100.288 -74.257,-66.863 -111.375,-157.412 -111.375,-271.64 0,-109.5 35.027,-196.76 105.089,-261.77 70.062,-65.025 164.375,-97.523 282.944,-97.523 113.171,0 216.761,24.204 310.785,72.648 z"
           style="fill:#00adee;fill-opacity:1;fill-rule:nonzero;stroke:none"
           id="path234"
           transform="translate(5236.7017,446.9505)"
           clip-path="url(#clipPath447)" />
        <path
           d="m 0,0 v -352.983 h 114.072 c 154.498,0 231.74,59.488 231.74,178.465 C 345.812,-58.175 268.57,0 114.072,0 Z M 0,-546.446 V -936.537 H -290.125 V 195.834 h 454.5 c 324.553,0 486.837,-120.304 486.837,-360.876 0,-113.71 -46.572,-205.704 -139.674,-275.988 -93.122,-70.277 -217.528,-105.416 -373.216,-105.416 z"
           style="fill:#00adee;fill-opacity:1;fill-rule:nonzero;stroke:none"
           id="path238"
           transform="translate(5751.3794,1343.2136)"
           clip-path="url(#clipPath465)" />
      </g>
    </g>
  </g>
</svg>
